<?xml version="1.0" encoding="utf-8"?>
<!-- Generator: Adobe Illustrator 15.0.2, SVG Export Plug-In  -->
<!DOCTYPE svg PUBLIC "-//W3C//DTD SVG 1.1//EN" "http://www.w3.org/Graphics/SVG/1.1/DTD/svg11.dtd" [
	<!ENTITY ns_flows "http://ns.adobe.com/Flows/1.0/">
]>
<svg version="1.1"
	 xmlns="http://www.w3.org/2000/svg" xmlns:xlink="http://www.w3.org/1999/xlink" xmlns:a="http://ns.adobe.com/AdobeSVGViewerExtensions/3.0/"
	 x="0px" y="0px" width="579px" height="48px" viewBox="5.598 40.468 579 48"
	 overflow="visible" enable-background="new 5.598 40.468 579 48" xml:space="preserve">
<defs>
</defs>
<path fill="#FFFFFF" d="M1.255,15.38C1.255,8.515,7.856,0,20.662,0c4.225,0,8.977,1.848,9.967,1.848
	c0.924,0,1.848-0.924,3.234-0.924c2.245,0,7.261,5.083,7.261,10.627c0,2.244-1.452,4.488-3.895,4.488
	c-4.423,0-6.997-7.525-13.862-7.525c-2.046,0-4.225,0.924-4.225,3.3c0,5.215,9.043,3.829,16.701,8.912
	c4.092,2.707,6.139,6.007,6.139,10.958c0,7.723-6.337,16.437-21.717,16.437c-4.356,0-11.815-1.122-15.578-3.169
	C1.519,43.171,0,36.173,0,32.806c0-1.782,0.792-3.564,2.772-3.564c4.687,0,3.895,10.495,16.04,10.495
	c1.452,0,5.083-0.727,5.083-3.234c0-4.752-9.043-3.564-16.371-9.439C3.895,24.159,1.255,20.133,1.255,15.38z"/>
<path fill="#FFFFFF" d="M60.528,13.466c9.901,0,15.116,5.479,15.116,10.1c0,3.696-2.772,6.535-6.469,6.535
	c-7.129,0-3.829-8.185-9.043-8.185c-2.904,0-4.489,2.971-4.489,5.611c0,4.885,3.631,9.835,8.845,9.835
	c4.159,0,5.545-1.716,6.931-1.716c1.782,0,2.97,1.979,2.97,3.563c0,3.896-5.94,8.911-15.182,8.911
	c-9.967,0-18.021-7.327-18.021-17.427C41.188,21.189,49.439,13.466,60.528,13.466z"/>
<path fill="#FFFFFF" d="M116.437,37.361c0,5.61,3.234,4.226,3.234,6.799c0,3.829-8.449,3.763-10.892,3.763
	c-2.046,0-10.034,0-10.034-3.365c0-1.916,1.849-1.85,2.376-5.215c0.396-2.112,0.462-4.423,0.462-6.602
	c0-3.301-0.066-9.506-4.752-9.506c-4.026,0-3.895,3.433-3.895,6.403v7.658c0,5.479,2.64,4.355,2.64,6.732
	c0,3.828-7.525,3.895-10.033,3.895c-9.439,0-11.618-1.979-11.618-4.025c0-2.641,2.574-1.452,3.696-5.743
	c0.792-3.103,0.792-11.815,0.792-15.446c0-2.97-0.198-6.007-0.264-8.977c-0.132-4.687-4.093-3.037-4.093-6.139
	c0-5.28,17.163-6.667,17.229-6.667c1.98,0,2.112,0.594,2.112,2.508l-0.396,12.542c-0.066,1.254-0.132,3.367,1.584,3.367
	c1.98,0,2.838-5.875,10.231-5.875c12.146,0,11.288,11.42,11.354,13.268L116.437,37.361z"/>
<path fill="#FFFFFF" d="M118.216,31.948c0-11.815,10.364-18.482,21.255-18.482c11.552,0,18.152,9.043,18.152,17.229
	c0,10.826-11.618,17.427-21.321,17.427C126.533,48.121,118.216,42.378,118.216,31.948z M136.633,21.255
	c-2.178,0-3.367,2.046-3.235,3.961c0.264,4.158,1.453,14.324,6.007,14.587c2.508,0.133,3.036-1.979,3.036-4.092
	C142.442,32.741,141.121,21.255,136.633,21.255z"/>
<path fill="#FFFFFF" d="M156.697,31.948c0-11.815,10.364-18.482,21.255-18.482c11.552,0,18.152,9.043,18.152,17.229
	c0,10.826-11.618,17.427-21.321,17.427C165.015,48.121,156.697,42.378,156.697,31.948z M175.114,21.255
	c-2.178,0-3.367,2.046-3.235,3.961c0.264,4.158,1.453,14.324,6.007,14.587c2.508,0.133,3.036-1.979,3.036-4.092
	C180.923,32.741,179.603,21.255,175.114,21.255z"/>
<path fill="#FFFFFF" d="M214.652,35.381c0,1.188-0.066,3.366,0.264,4.422c0.726,2.377,3.697,1.254,3.697,4.026
	c0,4.423-8.053,4.093-10.892,4.093c-2.97,0-12.212,0.33-12.212-4.355c0-2.311,2.838-1.452,3.631-3.895
	c0.858-2.707,0.858-10.958,0.858-14.192c0-2.574,0.132-7.525-0.462-10.495c-0.99-4.885-4.885-3.169-4.885-6.931
	c0-5.743,17.163-7.129,18.086-7.129c2.245,0,2.772,1.452,2.772,3.432c0,1.519-0.858,8.779-0.858,18.219L214.652,35.381
	L214.652,35.381z"/>
<path fill="#FFFFFF" d="M283.429,36.305c0,1.98,0.264,2.97,2.046,3.959c1.32,0.727,2.244,1.123,2.244,2.772
	c0,1.584-0.132,4.886-13.136,4.886c-2.904,0-11.354-0.066-11.354-4.488c-0.264-5.084,4.621,0.527,4.621-12.872
	c0-3.564-0.792-3.433-4.093-3.433c-9.241,0-8.383,0.264-8.383,6.205c0,9.044,4.092,5.412,4.092,9.703
	c0,4.621-9.637,4.886-12.806,4.886c-3.036,0-12.212-0.265-12.212-4.752c0-1.388,0.99-2.246,2.112-2.773
	c2.377-1.122,3.234-0.924,3.234-14.72c0-17.559-0.264-16.106-2.706-17.427c-0.99-0.528-2.179-1.122-2.179-2.442
	c0-5.083,11.024-5.61,14.721-5.61c2.772,0,10.43,0.33,10.43,4.291c0,2.046-1.122,2.772-2.641,3.696
	c-1.65,0.924-2.046,1.716-2.046,7.591c0,3.696,1.716,3.234,4.884,3.234h3.367c4.356,0,4.225-0.66,4.225-2.707
	c0-7.195-1.122-7.657-1.98-8.119c-1.254-0.726-2.442-1.32-2.442-3.036c0-1.254-0.264-4.951,12.872-4.951
	c3.103,0,11.882,0.066,11.882,4.687c0,1.452-0.727,2.442-2.047,3.103c-1.98,0.858-2.706,0.66-2.706,11.155L283.429,36.305
	L283.429,36.305z"/>
<path fill="#FFFFFF" d="M286.991,31.948c0-11.815,10.363-18.482,21.255-18.482c11.553,0,18.152,9.043,18.152,17.229
	c0,10.826-11.617,17.427-21.321,17.427C295.308,48.121,286.991,42.378,286.991,31.948z M305.407,21.255
	c-2.178,0-3.366,2.046-3.233,3.961c0.265,4.158,1.451,14.324,6.007,14.587c2.509,0.133,3.037-1.979,3.037-4.092
	C311.216,32.741,309.896,21.255,305.407,21.255z"/>
<path fill="#FFFFFF" d="M344.153,32.938c0,2.641,0.198,6.732,3.763,6.732c4.752,0,4.093-6.205,4.093-9.374
	c0-2.178,0.065-5.017-0.265-7.129c-0.527-3.301-3.763-2.178-3.763-4.951c0-3.895,13.269-4.555,15.776-4.555
	c2.376,0,3.365,1.386,3.365,3.696c0,2.112-0.132,4.159-0.132,6.271v13.268c0,3.961,3.631,2.111,3.631,5.281
	c0,4.487-11.684,5.742-15.313,5.742c-5.083,0-1.716-3.962-4.356-3.962c-0.727,0-1.782,0.99-3.366,1.98
	c-1.585,0.989-3.696,1.979-6.602,1.979c-12.542,0-11.485-9.9-11.485-19.803c0-10.1-4.555-5.677-4.555-10.034
	c0-4.225,16.635-4.422,17.162-4.422c1.849,0,2.047,0.858,2.047,2.508V32.938L344.153,32.938z"/>
<path fill="#FFFFFF" d="M387.056,13.862c1.188,0.198,2.244,0.462,2.706,0.462c0.659,0,1.188-0.198,1.781-0.462
	c0.595-0.198,1.188-0.396,1.782-0.396c3.036,0,6.073,6.073,6.073,8.779c0,1.782-1.52,3.103-3.234,3.103
	c-3.763,0-5.875-5.215-8.778-5.215c-1.188,0-2.377,0.99-2.377,2.244c0,4.225,14.521,5.017,14.521,15.249
	c0,6.204-6.007,10.495-12.872,10.495c-1.32,0-3.233-0.198-4.885-0.462c-1.65-0.197-3.104-0.396-3.498-0.396
	c-0.463,0-0.858,0.066-1.32,0.134c-0.396,0.065-0.792,0.131-1.255,0.131c-1.318,0-1.979-0.197-2.904-1.254
	c-1.648-1.849-3.3-5.611-3.3-8.119c0-1.717,0.595-3.103,2.508-3.103c2.904,0,5.546,6.536,9.241,6.536c1.32,0,2.575-0.66,2.575-2.113
	c0-3.895-12.938-4.355-12.938-15.248c0-6.601,5.412-10.76,12.212-10.76C384.416,13.466,385.801,13.598,387.056,13.862z"/>
<path fill="#FFFFFF" d="M415.173,32.014c-0.728,0-1.782-0.198-1.782,0.924c0,3.301,4.29,6.072,7.393,6.072
	c4.951,0,7.395-2.971,8.779-2.971c1.387,0,2.574,2.047,2.574,3.301c0,5.084-9.308,8.779-15.248,8.779
	c-11.882,0-18.021-8.581-18.021-17.097c0-10.166,8.647-17.559,18.549-17.559c11.223,0,16.173,8.647,16.173,13.598
	c0,4.357-1.979,4.951-4.093,4.951L415.173,32.014L415.173,32.014z M420.916,23.697c0-2.376-1.451-4.225-3.895-4.225
	c-2.178,0-3.96,2.245-3.96,4.357c0,2.376,2.244,1.848,3.96,1.848C418.803,25.678,420.916,26.074,420.916,23.697z"/>
<path fill="#FFFFFF" d="M455.766,10.957c0-4.951-6.141-2.772-6.141-6.931c0-2.64,2.904-3.234,4.951-3.234
	c1.65,0,3.234,0.132,4.885,0.132c9.571,0,15.381-0.924,18.152-0.924c8.979,0,17.625,5.215,17.625,15.116
	c0,9.835-8.317,15.116-17.493,15.116c-1.979,0-3.96-0.33-5.742-0.33c-0.793,0-1.057,0.33-1.057,1.056v3.829
	c0.198,8.251,5.017,4.818,5.017,8.647c0,4.289-9.505,4.488-12.476,4.488c-2.771,0-12.542-0.066-12.542-4.356
	c0-3.632,4.819-1.386,4.819-6.8L455.766,10.957L455.766,10.957z M473.457,7.789c-2.573,0-2.509,0.792-2.509,2.112v9.901
	c0,1.386-0.594,2.904,2.971,2.904c4.356,0,6.072-3.3,6.072-7.327C479.991,11.221,477.878,7.789,473.457,7.789z"/>
<path fill="#FFFFFF" d="M512.729,32.938c0,2.641,0.198,6.732,3.763,6.732c4.752,0,4.092-6.205,4.092-9.374
	c0-2.178,0.066-5.017-0.264-7.129c-0.528-3.301-3.763-2.178-3.763-4.951c0-3.895,13.269-4.555,15.775-4.555
	c2.376,0,3.366,1.386,3.366,3.696c0,2.112-0.132,4.159-0.132,6.271v13.268c0,3.961,3.631,2.111,3.631,5.281
	c0,4.487-11.684,5.742-15.313,5.742c-5.083,0-1.717-3.962-4.356-3.962c-0.727,0-1.782,0.99-3.366,1.98
	c-1.585,0.989-3.697,1.979-6.602,1.979c-12.542,0-11.485-9.9-11.485-19.803c0-10.1-4.555-5.677-4.555-10.034
	c0-4.225,16.635-4.422,17.162-4.422c1.849,0,2.047,0.858,2.047,2.508V32.938L512.729,32.938z"/>
<path fill="#FFFFFF" d="M555.83,16.502c0,0.33-0.064,1.056,0.463,1.056c0.33,0,1.387-1.056,3.103-2.046
	c1.717-1.056,4.026-2.046,6.932-2.046c6.997,0,12.938,5.875,12.938,14.588c0,11.289-8.449,20.067-19.804,20.067
	c-8.316,0-12.212-4.291-13.268-4.291c-1.057,0-2.112,0.99-4.291,0.99c-0.924,0-1.979-0.265-1.979-1.32s1.319-3.168,1.319-11.749
	V14.192c0-3.829-4.95-2.112-4.95-5.875c0-4.423,12.807-7.393,18.284-7.393c1.782,0,1.717,1.386,1.65,2.838L555.83,16.502z
	 M559.197,23.631c-2.904,0-3.234,2.376-3.234,4.621c0,12.806,0.727,13.862,3.366,13.862c4.356,0,5.083-4.951,5.083-8.317
	C564.412,30.694,563.553,23.631,559.197,23.631z"/>
</svg>
